<svg id="color" enable-background="new 0 0 24 24" height="512" viewBox="0 0 24 24" width="512" xmlns="http://www.w3.org/2000/svg"><g fill="#00bcd4"><path d="m13.77 10.41h-3.54c-.252 0-.487-.126-.626-.337l-4.58-6.93c-.224-.339-.135-.797.2-1.03 2.002-1.383 4.344-2.113 6.776-2.113s4.774.73 6.776 2.113c.335.232.424.69.199 1.03l-4.58 6.93c-.138.211-.374.337-.625.337z"/><path d="m16.718 22.96c-.188-.064-.344-.201-.431-.38l-3.66-7.46c-.107-.218-.103-.474.013-.687l1.67-3.09c.123-.228.354-.375.611-.392l8.24-.54c.396-.028.756.272.795.675.033.335.044.671.044.994 0 4.647-2.57 8.802-6.708 10.843-.176.086-.377.102-.574.037z"/><path d="m6.708 22.923c-4.138-2.041-6.708-6.195-6.708-10.843 0-.323.011-.659.044-.993.039-.402.395-.703.795-.675l8.24.54c.258.017.488.164.611.392l1.67 3.09c.115.213.12.469.013.686l-3.66 7.46c-.087.179-.242.315-.431.38-.197.065-.398.049-.574-.037z"/></g><path d="m12 15.84c-2.067 0-3.75-1.683-3.75-3.75s1.683-3.75 3.75-3.75 3.75 1.683 3.75 3.75-1.683 3.75-3.75 3.75z" fill="#607d8b"/><path d="m12 0c-2.432 0-4.774.73-6.776 2.113-.335.233-.424.691-.2 1.031l4.228 6.397c.686-.739 1.664-1.201 2.748-1.201z" fill="#00a4b9"/><path d="m.787 10.41c-.378 0-.705.292-.743.677-.033.334-.044.67-.044.993 0 4.648 2.57 8.802 6.708 10.843.103.05.215.077.33.077.081 0 .162-.013.244-.04.189-.064.344-.201.431-.38l3.363-6.855c-1.622-.413-2.826-1.886-2.826-3.635 0-.412.067-.809.19-1.18l-7.601-.498c-.018-.001-.035-.002-.052-.002z" fill="#00a4b9"/><path d="m12 8.34c-1.084 0-2.062.463-2.748 1.201-.361.389-.641.854-.812 1.369-.123.371-.19.768-.19 1.18 0 1.749 1.204 3.222 2.826 3.635.296.075.605.115.924.115z" fill="#546d79"/></svg>